<mxfile host="app.diagrams.net" modified="2021-09-05T11:14:20.609Z" agent="5.0 (Windows NT 10.0; Win64; x64) AppleWebKit/537.36 (KHTML, like Gecko) Chrome/93.0.4577.63 Safari/537.36" etag="R1TDMSGZrkbLk1Vivnne" version="15.0.6" type="github">
  <diagram id="JDOAdWOA3e27mY0W45j4" name="Page-1">
    <mxGraphModel dx="868" dy="450" grid="1" gridSize="10" guides="1" tooltips="1" connect="1" arrows="1" fold="1" page="1" pageScale="1" pageWidth="827" pageHeight="1169" math="0" shadow="0">
      <root>
        <mxCell id="0" />
        <mxCell id="1" parent="0" />
        <mxCell id="8Mh0Ojd9GcdNpZhKOxBE-1" value="cursos" style="shape=table;startSize=30;container=1;collapsible=1;childLayout=tableLayout;fixedRows=1;rowLines=0;fontStyle=1;align=center;resizeLast=1;" vertex="1" parent="1">
          <mxGeometry x="30" y="40" width="180" height="130" as="geometry" />
        </mxCell>
        <mxCell id="8Mh0Ojd9GcdNpZhKOxBE-2" value="" style="shape=partialRectangle;collapsible=0;dropTarget=0;pointerEvents=0;fillColor=none;top=0;left=0;bottom=1;right=0;points=[[0,0.5],[1,0.5]];portConstraint=eastwest;" vertex="1" parent="8Mh0Ojd9GcdNpZhKOxBE-1">
          <mxGeometry y="30" width="180" height="30" as="geometry" />
        </mxCell>
        <mxCell id="8Mh0Ojd9GcdNpZhKOxBE-3" value="PK" style="shape=partialRectangle;connectable=0;fillColor=none;top=0;left=0;bottom=0;right=0;fontStyle=1;overflow=hidden;" vertex="1" parent="8Mh0Ojd9GcdNpZhKOxBE-2">
          <mxGeometry width="30" height="30" as="geometry" />
        </mxCell>
        <mxCell id="8Mh0Ojd9GcdNpZhKOxBE-4" value="cod_curso" style="shape=partialRectangle;connectable=0;fillColor=none;top=0;left=0;bottom=0;right=0;align=left;spacingLeft=6;fontStyle=5;overflow=hidden;" vertex="1" parent="8Mh0Ojd9GcdNpZhKOxBE-2">
          <mxGeometry x="30" width="150" height="30" as="geometry" />
        </mxCell>
        <mxCell id="8Mh0Ojd9GcdNpZhKOxBE-5" value="" style="shape=partialRectangle;collapsible=0;dropTarget=0;pointerEvents=0;fillColor=none;top=0;left=0;bottom=0;right=0;points=[[0,0.5],[1,0.5]];portConstraint=eastwest;" vertex="1" parent="8Mh0Ojd9GcdNpZhKOxBE-1">
          <mxGeometry y="60" width="180" height="30" as="geometry" />
        </mxCell>
        <mxCell id="8Mh0Ojd9GcdNpZhKOxBE-6" value="" style="shape=partialRectangle;connectable=0;fillColor=none;top=0;left=0;bottom=0;right=0;editable=1;overflow=hidden;" vertex="1" parent="8Mh0Ojd9GcdNpZhKOxBE-5">
          <mxGeometry width="30" height="30" as="geometry" />
        </mxCell>
        <mxCell id="8Mh0Ojd9GcdNpZhKOxBE-7" value="nome" style="shape=partialRectangle;connectable=0;fillColor=none;top=0;left=0;bottom=0;right=0;align=left;spacingLeft=6;overflow=hidden;" vertex="1" parent="8Mh0Ojd9GcdNpZhKOxBE-5">
          <mxGeometry x="30" width="150" height="30" as="geometry" />
        </mxCell>
        <mxCell id="8Mh0Ojd9GcdNpZhKOxBE-8" value="" style="shape=partialRectangle;collapsible=0;dropTarget=0;pointerEvents=0;fillColor=none;top=0;left=0;bottom=0;right=0;points=[[0,0.5],[1,0.5]];portConstraint=eastwest;" vertex="1" parent="8Mh0Ojd9GcdNpZhKOxBE-1">
          <mxGeometry y="90" width="180" height="30" as="geometry" />
        </mxCell>
        <mxCell id="8Mh0Ojd9GcdNpZhKOxBE-9" value="" style="shape=partialRectangle;connectable=0;fillColor=none;top=0;left=0;bottom=0;right=0;editable=1;overflow=hidden;" vertex="1" parent="8Mh0Ojd9GcdNpZhKOxBE-8">
          <mxGeometry width="30" height="30" as="geometry" />
        </mxCell>
        <mxCell id="8Mh0Ojd9GcdNpZhKOxBE-10" value="professor" style="shape=partialRectangle;connectable=0;fillColor=none;top=0;left=0;bottom=0;right=0;align=left;spacingLeft=6;overflow=hidden;" vertex="1" parent="8Mh0Ojd9GcdNpZhKOxBE-8">
          <mxGeometry x="30" width="150" height="30" as="geometry" />
        </mxCell>
        <mxCell id="8Mh0Ojd9GcdNpZhKOxBE-14" value="aluno  &#xa;" style="shape=table;startSize=30;container=1;collapsible=1;childLayout=tableLayout;fixedRows=1;rowLines=0;fontStyle=1;align=center;resizeLast=1;" vertex="1" parent="1">
          <mxGeometry x="280" y="40" width="180" height="220" as="geometry" />
        </mxCell>
        <mxCell id="8Mh0Ojd9GcdNpZhKOxBE-15" value="" style="shape=partialRectangle;collapsible=0;dropTarget=0;pointerEvents=0;fillColor=none;top=0;left=0;bottom=1;right=0;points=[[0,0.5],[1,0.5]];portConstraint=eastwest;" vertex="1" parent="8Mh0Ojd9GcdNpZhKOxBE-14">
          <mxGeometry y="30" width="180" height="30" as="geometry" />
        </mxCell>
        <mxCell id="8Mh0Ojd9GcdNpZhKOxBE-16" value="PK" style="shape=partialRectangle;connectable=0;fillColor=none;top=0;left=0;bottom=0;right=0;fontStyle=1;overflow=hidden;" vertex="1" parent="8Mh0Ojd9GcdNpZhKOxBE-15">
          <mxGeometry width="30" height="30" as="geometry" />
        </mxCell>
        <mxCell id="8Mh0Ojd9GcdNpZhKOxBE-17" value="cod_aluno" style="shape=partialRectangle;connectable=0;fillColor=none;top=0;left=0;bottom=0;right=0;align=left;spacingLeft=6;fontStyle=5;overflow=hidden;" vertex="1" parent="8Mh0Ojd9GcdNpZhKOxBE-15">
          <mxGeometry x="30" width="150" height="30" as="geometry" />
        </mxCell>
        <mxCell id="8Mh0Ojd9GcdNpZhKOxBE-18" value="" style="shape=partialRectangle;collapsible=0;dropTarget=0;pointerEvents=0;fillColor=none;top=0;left=0;bottom=0;right=0;points=[[0,0.5],[1,0.5]];portConstraint=eastwest;" vertex="1" parent="8Mh0Ojd9GcdNpZhKOxBE-14">
          <mxGeometry y="60" width="180" height="30" as="geometry" />
        </mxCell>
        <mxCell id="8Mh0Ojd9GcdNpZhKOxBE-19" value="" style="shape=partialRectangle;connectable=0;fillColor=none;top=0;left=0;bottom=0;right=0;editable=1;overflow=hidden;" vertex="1" parent="8Mh0Ojd9GcdNpZhKOxBE-18">
          <mxGeometry width="30" height="30" as="geometry" />
        </mxCell>
        <mxCell id="8Mh0Ojd9GcdNpZhKOxBE-20" value="nome" style="shape=partialRectangle;connectable=0;fillColor=none;top=0;left=0;bottom=0;right=0;align=left;spacingLeft=6;overflow=hidden;" vertex="1" parent="8Mh0Ojd9GcdNpZhKOxBE-18">
          <mxGeometry x="30" width="150" height="30" as="geometry" />
        </mxCell>
        <mxCell id="8Mh0Ojd9GcdNpZhKOxBE-21" value="" style="shape=partialRectangle;collapsible=0;dropTarget=0;pointerEvents=0;fillColor=none;top=0;left=0;bottom=0;right=0;points=[[0,0.5],[1,0.5]];portConstraint=eastwest;" vertex="1" parent="8Mh0Ojd9GcdNpZhKOxBE-14">
          <mxGeometry y="90" width="180" height="30" as="geometry" />
        </mxCell>
        <mxCell id="8Mh0Ojd9GcdNpZhKOxBE-22" value="" style="shape=partialRectangle;connectable=0;fillColor=none;top=0;left=0;bottom=0;right=0;editable=1;overflow=hidden;" vertex="1" parent="8Mh0Ojd9GcdNpZhKOxBE-21">
          <mxGeometry width="30" height="30" as="geometry" />
        </mxCell>
        <mxCell id="8Mh0Ojd9GcdNpZhKOxBE-23" value="dt_nasc" style="shape=partialRectangle;connectable=0;fillColor=none;top=0;left=0;bottom=0;right=0;align=left;spacingLeft=6;overflow=hidden;" vertex="1" parent="8Mh0Ojd9GcdNpZhKOxBE-21">
          <mxGeometry x="30" width="150" height="30" as="geometry" />
        </mxCell>
        <mxCell id="8Mh0Ojd9GcdNpZhKOxBE-24" value="" style="shape=partialRectangle;collapsible=0;dropTarget=0;pointerEvents=0;fillColor=none;top=0;left=0;bottom=0;right=0;points=[[0,0.5],[1,0.5]];portConstraint=eastwest;" vertex="1" parent="8Mh0Ojd9GcdNpZhKOxBE-14">
          <mxGeometry y="120" width="180" height="30" as="geometry" />
        </mxCell>
        <mxCell id="8Mh0Ojd9GcdNpZhKOxBE-25" value="" style="shape=partialRectangle;connectable=0;fillColor=none;top=0;left=0;bottom=0;right=0;editable=1;overflow=hidden;" vertex="1" parent="8Mh0Ojd9GcdNpZhKOxBE-24">
          <mxGeometry width="30" height="30" as="geometry" />
        </mxCell>
        <mxCell id="8Mh0Ojd9GcdNpZhKOxBE-26" value="telefone" style="shape=partialRectangle;connectable=0;fillColor=none;top=0;left=0;bottom=0;right=0;align=left;spacingLeft=6;overflow=hidden;" vertex="1" parent="8Mh0Ojd9GcdNpZhKOxBE-24">
          <mxGeometry x="30" width="150" height="30" as="geometry" />
        </mxCell>
        <mxCell id="8Mh0Ojd9GcdNpZhKOxBE-27" value="" style="shape=partialRectangle;collapsible=0;dropTarget=0;pointerEvents=0;fillColor=none;top=0;left=0;bottom=0;right=0;points=[[0,0.5],[1,0.5]];portConstraint=eastwest;" vertex="1" parent="8Mh0Ojd9GcdNpZhKOxBE-14">
          <mxGeometry y="150" width="180" height="30" as="geometry" />
        </mxCell>
        <mxCell id="8Mh0Ojd9GcdNpZhKOxBE-28" value="" style="shape=partialRectangle;connectable=0;fillColor=none;top=0;left=0;bottom=0;right=0;editable=1;overflow=hidden;" vertex="1" parent="8Mh0Ojd9GcdNpZhKOxBE-27">
          <mxGeometry width="30" height="30" as="geometry" />
        </mxCell>
        <mxCell id="8Mh0Ojd9GcdNpZhKOxBE-29" value="endereco" style="shape=partialRectangle;connectable=0;fillColor=none;top=0;left=0;bottom=0;right=0;align=left;spacingLeft=6;overflow=hidden;" vertex="1" parent="8Mh0Ojd9GcdNpZhKOxBE-27">
          <mxGeometry x="30" width="150" height="30" as="geometry" />
        </mxCell>
        <mxCell id="8Mh0Ojd9GcdNpZhKOxBE-30" value="" style="shape=partialRectangle;collapsible=0;dropTarget=0;pointerEvents=0;fillColor=none;top=0;left=0;bottom=0;right=0;points=[[0,0.5],[1,0.5]];portConstraint=eastwest;" vertex="1" parent="8Mh0Ojd9GcdNpZhKOxBE-14">
          <mxGeometry y="180" width="180" height="30" as="geometry" />
        </mxCell>
        <mxCell id="8Mh0Ojd9GcdNpZhKOxBE-31" value="" style="shape=partialRectangle;connectable=0;fillColor=none;top=0;left=0;bottom=0;right=0;editable=1;overflow=hidden;" vertex="1" parent="8Mh0Ojd9GcdNpZhKOxBE-30">
          <mxGeometry width="30" height="30" as="geometry" />
        </mxCell>
        <mxCell id="8Mh0Ojd9GcdNpZhKOxBE-32" value="cidade" style="shape=partialRectangle;connectable=0;fillColor=none;top=0;left=0;bottom=0;right=0;align=left;spacingLeft=6;overflow=hidden;" vertex="1" parent="8Mh0Ojd9GcdNpZhKOxBE-30">
          <mxGeometry x="30" width="150" height="30" as="geometry" />
        </mxCell>
      </root>
    </mxGraphModel>
  </diagram>
</mxfile>
